FILE "Aoki Ookami to Shiroki Mejika - Genchou Hishi (1993)(Koei)(JP).img" BINARY
  TRACK 01 MODE1/2352
    INDEX 01 00:00:00
  TRACK 02 AUDIO
    PREGAP 00:02:00
    INDEX 01 01:04:73
  TRACK 03 AUDIO
    INDEX 00 01:08:74
    INDEX 01 01:10:74
  TRACK 04 AUDIO
    INDEX 00 01:15:30
    INDEX 01 01:17:30
  TRACK 05 AUDIO
    INDEX 00 01:22:38
    INDEX 01 01:24:38
  TRACK 06 AUDIO
    INDEX 00 01:28:39
    INDEX 01 01:30:39
  TRACK 07 AUDIO
    INDEX 00 01:34:40
    INDEX 01 01:36:40
  TRACK 08 AUDIO
    INDEX 00 01:40:74
    INDEX 01 01:42:74
  TRACK 09 AUDIO
    INDEX 00 01:47:65
    INDEX 01 01:49:65
  TRACK 10 AUDIO
    INDEX 00 01:53:66
    INDEX 01 01:55:66
  TRACK 11 AUDIO
    INDEX 00 01:59:67
    INDEX 01 02:01:67
  TRACK 12 AUDIO
    INDEX 00 02:07:53
    INDEX 01 02:09:53
  TRACK 13 AUDIO
    INDEX 00 02:13:54
    INDEX 01 02:15:54
  TRACK 14 AUDIO
    INDEX 00 02:19:72
    INDEX 01 02:21:72
  TRACK 15 AUDIO
    INDEX 00 02:27:63
    INDEX 01 02:29:63
  TRACK 16 AUDIO
    INDEX 00 02:33:74
    INDEX 01 02:35:74
  TRACK 17 AUDIO
    INDEX 00 02:40:05
    INDEX 01 02:42:05
  TRACK 18 AUDIO
    INDEX 00 02:46:46
    INDEX 01 02:48:46
  TRACK 19 AUDIO
    INDEX 00 02:53:19
    INDEX 01 02:55:19
  TRACK 20 AUDIO
    INDEX 00 02:59:39
    INDEX 01 03:01:39
  TRACK 21 AUDIO
    INDEX 00 03:06:16
    INDEX 01 03:08:16
  TRACK 22 AUDIO
    INDEX 00 03:13:71
    INDEX 01 03:15:71
  TRACK 23 AUDIO
    INDEX 00 03:21:13
    INDEX 01 03:23:13
  TRACK 24 AUDIO
    INDEX 00 03:28:39
    INDEX 01 03:30:39
  TRACK 25 AUDIO
    INDEX 00 03:34:51
    INDEX 01 03:36:51
  TRACK 26 AUDIO
    INDEX 00 03:41:65
    INDEX 01 03:43:65
  TRACK 27 AUDIO
    INDEX 00 03:48:08
    INDEX 01 03:50:08
  TRACK 28 AUDIO
    INDEX 00 03:55:20
    INDEX 01 03:57:20
  TRACK 29 AUDIO
    INDEX 00 04:01:33
    INDEX 01 04:03:33
  TRACK 30 AUDIO
    INDEX 00 04:07:52
    INDEX 01 04:09:52
  TRACK 31 AUDIO
    INDEX 00 04:14:21
    INDEX 01 04:16:21
  TRACK 32 AUDIO
    INDEX 00 04:20:24
    INDEX 01 04:22:24
  TRACK 33 AUDIO
    INDEX 00 04:27:12
    INDEX 01 04:29:12
  TRACK 34 AUDIO
    INDEX 00 04:33:13
    INDEX 01 04:35:13
  TRACK 35 AUDIO
    INDEX 00 04:39:15
    INDEX 01 04:41:15
  TRACK 36 AUDIO
    INDEX 00 04:45:16
    INDEX 01 04:47:16
  TRACK 37 AUDIO
    INDEX 00 04:51:17
    INDEX 01 04:53:17
  TRACK 38 AUDIO
    INDEX 00 04:58:58
    INDEX 01 05:00:58
  TRACK 39 AUDIO
    INDEX 00 05:06:64
    INDEX 01 05:08:64
  TRACK 40 AUDIO
    INDEX 00 05:12:65
    INDEX 01 05:14:65
  TRACK 41 AUDIO
    INDEX 00 05:19:61
    INDEX 01 05:21:61
  TRACK 42 AUDIO
    INDEX 00 05:28:28
    INDEX 01 05:30:28
  TRACK 43 AUDIO
    INDEX 00 05:34:29
    INDEX 01 05:36:29
  TRACK 44 AUDIO
    INDEX 00 05:41:35
    INDEX 01 05:43:35
  TRACK 45 AUDIO
    INDEX 00 05:49:53
    INDEX 01 05:51:53
  TRACK 46 AUDIO
    INDEX 00 05:56:44
    INDEX 01 05:58:44
  TRACK 47 AUDIO
    INDEX 00 06:04:28
    INDEX 01 06:06:28
  TRACK 48 AUDIO
    INDEX 00 06:10:55
    INDEX 01 06:12:55
  TRACK 49 AUDIO
    INDEX 00 06:18:22
    INDEX 01 06:20:22
  TRACK 50 AUDIO
    INDEX 00 06:25:41
    INDEX 01 06:27:41
  TRACK 51 AUDIO
    INDEX 00 06:32:38
    INDEX 01 06:34:38
  TRACK 52 AUDIO
    INDEX 00 06:39:37
    INDEX 01 06:41:37
  TRACK 53 AUDIO
    INDEX 00 06:47:49
    INDEX 01 06:49:49
  TRACK 54 AUDIO
    INDEX 00 06:53:50
    INDEX 01 06:55:50
  TRACK 55 AUDIO
    INDEX 00 06:59:51
    INDEX 01 07:01:51
  TRACK 56 AUDIO
    INDEX 00 07:05:52
    INDEX 01 07:07:52
  TRACK 57 AUDIO
    INDEX 00 07:11:54
    INDEX 01 07:13:54
  TRACK 58 AUDIO
    INDEX 00 07:17:55
    INDEX 01 07:19:55
  TRACK 59 AUDIO
    INDEX 00 07:23:56
    INDEX 01 07:25:56
  TRACK 60 AUDIO
    INDEX 00 07:32:04
    INDEX 01 07:34:04
  TRACK 61 AUDIO
    INDEX 00 07:40:12
    INDEX 01 07:42:12
  TRACK 62 AUDIO
    INDEX 00 07:48:01
    INDEX 01 07:50:01
  TRACK 63 AUDIO
    INDEX 00 07:55:69
    INDEX 01 07:57:69
  TRACK 64 AUDIO
    INDEX 00 08:02:55
    INDEX 01 08:04:55
  TRACK 65 AUDIO
    INDEX 00 08:10:30
    INDEX 01 08:12:30
  TRACK 66 AUDIO
    INDEX 00 08:18:65
    INDEX 01 08:20:65
  TRACK 67 AUDIO
    INDEX 00 08:26:24
    INDEX 01 08:28:24
  TRACK 68 AUDIO
    INDEX 00 08:35:13
    INDEX 01 08:37:13
  TRACK 69 AUDIO
    INDEX 00 08:41:33
    INDEX 01 08:43:33
  TRACK 70 AUDIO
    INDEX 00 08:48:30
    INDEX 01 08:50:30
  TRACK 71 AUDIO
    INDEX 00 08:55:24
    INDEX 01 08:57:24
  TRACK 72 AUDIO
    INDEX 00 09:02:13
    INDEX 01 09:04:13
  TRACK 73 AUDIO
    INDEX 00 09:08:43
    INDEX 01 09:10:43
  TRACK 74 AUDIO
    INDEX 00 09:16:49
    INDEX 01 09:18:49
  TRACK 75 AUDIO
    INDEX 00 09:24:56
    INDEX 01 09:26:56
  TRACK 76 AUDIO
    INDEX 00 09:33:34
    INDEX 01 09:35:34
  TRACK 77 AUDIO
    INDEX 00 09:39:35
    INDEX 01 09:41:35
  TRACK 78 AUDIO
    INDEX 00 09:46:30
    INDEX 01 09:48:30
  TRACK 79 AUDIO
    INDEX 00 09:52:43
    INDEX 01 09:54:43
  TRACK 80 AUDIO
    INDEX 00 09:59:04
    INDEX 01 10:01:04
  TRACK 81 AUDIO
    INDEX 00 10:06:08
    INDEX 01 10:08:08
  TRACK 82 AUDIO
    INDEX 00 14:48:74
    INDEX 01 14:50:74
  TRACK 83 AUDIO
    INDEX 00 18:50:59
    INDEX 01 18:52:59
  TRACK 84 AUDIO
    INDEX 00 22:55:37
    INDEX 01 22:57:37
  TRACK 85 AUDIO
    INDEX 00 27:27:29
    INDEX 01 27:29:29
  TRACK 86 AUDIO
    INDEX 00 30:58:02
    INDEX 01 31:00:02
  TRACK 87 AUDIO
    INDEX 00 35:00:60
    INDEX 01 35:02:60
  TRACK 88 AUDIO
    INDEX 00 39:40:46
    INDEX 01 39:42:46
  TRACK 89 AUDIO
    INDEX 00 43:07:62
    INDEX 01 43:09:62
  TRACK 90 AUDIO
    INDEX 00 49:23:07
    INDEX 01 49:25:07
